Coordinates
version=1
nRows=7
nColumns=46
inDegrees=yes

Units are S.I. units (second, meters, Newtons, ...)
Angles are in degrees.

endheader
time	pelvis_tilt	pelvis_list	pelvis_rotation	pelvis_tx	pelvis_ty	pelvis_tz	bb_angle	bb_tx	bb_ty	bb_tz	hip_flexion_r	hip_adduction_r	hip_rotation_r	knee_angle_r	knee_angle_r_beta	ankle_angle_r	subtalar_angle_r	mtp_angle_r	crank_angle_r	hip_flexion_l	hip_adduction_l	hip_rotation_l	knee_angle_l	knee_angle_l_beta	ankle_angle_l	subtalar_angle_l	mtp_angle_l	crank_angle_l	lumbar_extension	lumbar_bending	lumbar_rotation	arm_flex_r	arm_add_r	arm_rot_r	elbow_flex_r	pro_sup_r	wrist_flex_r	wrist_dev_r	arm_flex_l	arm_add_l	arm_rot_l	elbow_flex_l	pro_sup_l	wrist_flex_l	wrist_dev_l
      2.50500000	    -26.17268769	      2.05330966	     -6.86350075	      0.39418837	      1.23452817	     -0.20943035	      0.00000000	      0.50000000	      0.00000000	      0.25000000	     59.15983690	      0.08708189	      2.72273864	     58.39521535	      1.01918878	     20.74555363	     -3.50147882	      0.00000000	      0.00000000	     44.03899081	    -15.78980335	    -12.35415610	     64.56086375	      1.12679964	    -13.16601724	      9.89327444	      0.00000000	      0.00000000	    -49.35236523	      7.92641210	      6.00863081	     65.91580307	    -23.77811462	     51.52780078	     61.30973082	     46.77072879	      0.00000000	      0.00000000	     58.19828080	    -10.55663969	     29.89414590	     28.60030993	     43.53548131	      0.00000000	      0.00000000
      2.51000000	    -25.94246875	      2.04151235	     -6.79538719	      0.39469465	      1.23379118	     -0.20945938	      0.00000000	      0.50000000	      0.00000000	      0.25000000	     58.72435082	     -0.02996461	      2.68678986	     58.05752374	      1.01329494	     20.48504741	     -3.30180830	      0.00000000	      0.00000000	     44.22636044	    -15.84694760	    -12.16602931	     65.42522265	      1.14188555	    -12.89422875	      9.81148743	      0.00000000	      0.00000000	    -49.40428782	      7.96700654	      6.15934099	     66.39609142	    -24.48737718	     53.25574758	     61.22134833	     46.99430616	      0.00000000	      0.00000000	     58.77335037	     -9.99303012	     31.07228717	     26.70496177	     43.47660204	      0.00000000	      0.00000000
      2.51500000	    -25.84071866	      2.13358925	     -6.74985291	      0.39517264	      1.23277744	     -0.20940389	      0.00000000	      0.50000000	      0.00000000	      0.25000000	     58.47703353	     -0.19470450	      2.71581646	     57.78054977	      1.00846084	     20.24690837	     -2.98863298	      0.00000000	      0.00000000	     44.53785502	    -15.85102075	    -12.06198876	     66.27793381	      1.15676817	    -12.70583795	      9.63181187	      0.00000000	      0.00000000	    -49.41062438	      7.87189320	      6.04274261	     65.75928969	    -24.34537729	     52.11384854	     61.64438137	     46.90947115	      0.00000000	      0.00000000	     58.35333498	    -10.22564314	     30.51341834	     27.71629142	     43.53469749	      0.00000000	      0.00000000
      2.52000000	    -25.63766047	      2.14088255	     -6.72093044	      0.39565380	      1.23191075	     -0.20946357	      0.00000000	      0.50000000	      0.00000000	      0.25000000	     58.08884927	     -0.30622056	      2.69679992	     57.45917091	      1.00285172	     19.93073079	     -2.81670329	      0.00000000	      0.00000000	     44.75860855	    -15.93889514	    -11.92446533	     67.16586677	      1.17226552	    -12.46563463	      9.63385293	      0.00000000	      0.00000000	    -49.44824871	      7.84441380	      6.18221141	     65.75079917	    -24.84740865	     52.67896641	     61.83624786	     47.05027457	      0.00000000	      0.00000000	     58.65647326	     -9.92295532	     31.49495741	     26.73486680	     43.59888502	      0.00000000	      0.00000000
      2.52500000	    -25.53742659	      2.24478725	     -6.65236328	      0.39607797	      1.23085223	     -0.20947738	      0.00000000	      0.50000000	      0.00000000	      0.25000000	     57.86507738	     -0.51462978	      2.67876335	     57.20937188	      0.99849190	     19.67215896	     -2.55589809	      0.00000000	      0.00000000	     45.08596461	    -15.90320709	    -11.78582998	     68.00812094	      1.18696563	    -12.34155146	      9.53979389	      0.00000000	      0.00000000	    -49.44089703	      7.75929706	      6.04357853	     65.11216212	    -24.69375818	     51.53145556	     62.22670012	     46.95804385	      0.00000000	      0.00000000	     58.25061890	    -10.15026186	     30.89947118	     27.77873287	     43.65167352	      0.00000000	      0.00000000
      2.53000000	    -25.43240386	      2.42509050	     -6.57758726	      0.39655737	      1.22986786	     -0.20955065	      0.00000000	      0.50000000	      0.00000000	      0.25000000	     57.64364358	     -0.76186594	      2.73233658	     56.95400843	      0.99403497	     19.36199364	     -2.62085085	      0.00000000	      0.00000000	     45.36325943	    -15.77483620	    -11.71086645	     68.76714076	      1.20021302	    -12.26828614	      9.41113749	      0.00000000	      0.00000000	    -49.38369814	      7.62688145	      5.89203095	     64.64727889	    -24.64895299	     50.80276375	     62.44599317	     46.89461799	      0.00000000	      0.00000000	     57.88170586	    -10.25975647	     30.49813286	     28.45220338	     43.68113841	      0.00000000	      0.00000000
      2.53500000	    -25.17389794	      2.25265303	     -6.54912007	      0.39696609	      1.22893566	     -0.20950776	      0.00000000	      0.50000000	      0.00000000	      0.25000000	     57.17326491	     -0.74660489	      2.51911228	     56.65128308	      0.98875142	     19.07727045	     -2.45948730	      0.00000000	      0.00000000	     45.59050370	    -16.03653775	    -11.44095658	     69.74211560	      1.21722954	    -11.90924274	      9.47679572	      0.00000000	      0.00000000	    -49.50462070	      7.72098236	      6.18658534	     64.71228057	    -25.25494136	     51.64284524	     62.64364005	     47.07858626	      0.00000000	      0.00000000	     58.31658586	     -9.88385414	     31.57320575	     27.13958747	     43.71785725	      0.00000000	      0.00000000
